<svg id="Layer_1" data-name="Layer 1" xmlns="http://www.w3.org/2000/svg" viewBox="0 0 229.02 62.41"><defs><style>.cls-1{fill:#261400;}</style></defs><polygon class="cls-1" points="4.26 25.13 8.18 25.13 8.18 3.75 12.38 3.75 12.38 0.21 0.1 0.21 0.1 3.75 4.26 3.75 4.26 25.13"/><path class="cls-1" d="M24.5,20.2l1,4.93h4.09L23.56.21H19.75L13.63,25.13h4.13l1-4.93Zm-2.86-14,2.13,10.43H19.51Z"/><polygon class="cls-1" points="46.95 0.21 42.99 0.21 37.58 11.94 37.58 0.21 33.66 0.21 33.66 25.13 37.58 25.13 37.58 18.73 39.46 14.88 43.48 25.13 47.71 25.13 41.95 10.54 46.95 0.21"/><polygon class="cls-1" points="62.26 21.6 55.72 21.6 55.72 14.35 61.35 14.35 61.35 10.82 55.72 10.82 55.72 3.75 62.26 3.75 62.26 0.21 51.8 0.21 51.8 25.13 62.26 25.13 62.26 21.6"/><polygon class="cls-1" points="77.84 25.13 81.76 25.13 81.76 3.75 85.95 3.75 85.95 0.21 73.68 0.21 73.68 3.75 77.84 3.75 77.84 25.13"/><polygon class="cls-1" points="103.22 25.13 103.22 0.21 99.31 0.21 99.31 10.71 94.45 10.71 94.45 0.21 90.53 0.21 90.53 25.13 94.45 25.13 94.45 14.25 99.31 14.25 99.31 25.13 103.22 25.13"/><polygon class="cls-1" points="109.16 25.13 119.61 25.13 119.61 21.6 113.08 21.6 113.08 14.35 118.71 14.35 118.71 10.82 113.08 10.82 113.08 3.75 119.61 3.75 119.61 0.21 109.16 0.21 109.16 25.13"/><path class="cls-1" d="M138,21.84a2.37,2.37,0,0,1-1.81-.66,4,4,0,0,1-.7-2.8h-3.92c0,2.62.42,4.16,1.61,5.35A6.58,6.58,0,0,0,138,25.38a6.84,6.84,0,0,0,4.86-1.65c1.26-1.22,1.61-2.94,1.61-5.49,0-4.2-.8-5.78-3.77-7l-2.94-1.19c-1.75-.7-2.06-1.33-2.06-3.36a3.73,3.73,0,0,1,.66-2.45,2.11,2.11,0,0,1,1.68-.7,2.08,2.08,0,0,1,1.75.73,4.17,4.17,0,0,1,.59,2.66h3.92c0-2.38-.46-4.16-1.75-5.43A6.2,6.2,0,0,0,138,0a6.27,6.27,0,0,0-4.26,1.5,6.84,6.84,0,0,0-2,5.29c0,3.85.95,5.22,3.46,6.27l3,1.22c1.93.77,2.35,1.44,2.35,4.1a3.94,3.94,0,0,1-.67,2.76A2.28,2.28,0,0,1,138,21.84Z"/><polygon class="cls-1" points="160.34 0.21 148.07 0.21 148.07 3.75 152.23 3.75 152.23 25.13 156.14 25.13 156.14 3.75 160.34 3.75 160.34 0.21"/><path class="cls-1" d="M174.28,25.13h4.09l-3.7-11.06c2.27-1.22,2.9-3.43,2.9-6.51,0-5.14-1.82-7.35-6.36-7.35h-6.3V25.13h3.92V14.91H171ZM168.83,3.75h2.41c2.1,0,2.41,1.75,2.41,3.81s-.31,3.82-2.41,3.82h-2.41Z"/><polygon class="cls-1" points="183.37 25.13 193.82 25.13 193.82 21.6 187.28 21.6 187.28 14.35 192.91 14.35 192.91 10.82 187.28 10.82 187.28 3.75 193.82 3.75 193.82 0.21 183.37 0.21 183.37 25.13"/><path class="cls-1" d="M204.52,21.84a2.38,2.38,0,0,1-1.82-.66,4,4,0,0,1-.7-2.8h-3.91c0,2.62.42,4.16,1.6,5.35a6.59,6.59,0,0,0,4.83,1.65,6.88,6.88,0,0,0,4.86-1.65c1.26-1.22,1.61-2.94,1.61-5.49,0-4.2-.81-5.78-3.78-7l-2.94-1.19c-1.74-.7-2.06-1.33-2.06-3.36a3.68,3.68,0,0,1,.67-2.45,2.4,2.4,0,0,1,3.42,0,4.11,4.11,0,0,1,.6,2.66h3.91c0-2.38-.45-4.16-1.75-5.43A6.19,6.19,0,0,0,204.59,0a6.31,6.31,0,0,0-4.27,1.5,6.84,6.84,0,0,0-2,5.29c0,3.85.94,5.22,3.46,6.27l3,1.22c1.92.77,2.34,1.44,2.34,4.1a4,4,0,0,1-.66,2.76A2.3,2.3,0,0,1,204.52,21.84Z"/><path class="cls-1" d="M226.57,23.73c1.26-1.22,1.61-2.94,1.61-5.49,0-4.2-.8-5.78-3.77-7l-2.94-1.19c-1.75-.7-2.06-1.33-2.06-3.36a3.73,3.73,0,0,1,.66-2.45,2.11,2.11,0,0,1,1.68-.7,2.08,2.08,0,0,1,1.75.73,4.17,4.17,0,0,1,.59,2.66H228c0-2.38-.46-4.16-1.75-5.43A6.19,6.19,0,0,0,221.79,0a6.27,6.27,0,0,0-4.27,1.5,6.84,6.84,0,0,0-2,5.29c0,3.85.95,5.22,3.46,6.27l3,1.22c1.92.77,2.34,1.44,2.34,4.1a3.94,3.94,0,0,1-.67,2.76,2.28,2.28,0,0,1-1.88.7,2.38,2.38,0,0,1-1.82-.66,4,4,0,0,1-.7-2.8h-3.92c0,2.62.42,4.16,1.61,5.35a6.59,6.59,0,0,0,4.83,1.65A6.83,6.83,0,0,0,226.57,23.73Z"/><path class="cls-1" d="M6.64,36.93a5.87,5.87,0,0,0-4.82,2.14C.17,41.06,0,43.76,0,49.67s.17,8.61,1.82,10.61a5.9,5.9,0,0,0,4.82,2.13,5.93,5.93,0,0,0,4.83-2.13c1.67-2,1.81-4.69,1.81-10.61s-.14-8.64-1.81-10.6A5.91,5.91,0,0,0,6.64,36.93Zm1.89,21a2.06,2.06,0,0,1-1.89,1,2,2,0,0,1-1.85-1c-.73-1.19-.87-3.71-.87-8.26s.14-7.07.87-8.26a2,2,0,0,1,1.85-.94,2.06,2.06,0,0,1,1.89.94c.73,1.19.84,3.71.84,8.26S9.26,56.74,8.53,57.93Z"/><path class="cls-1" d="M27.13,56.22a2.44,2.44,0,1,1-4.86,0v-19H18.35V56a6.44,6.44,0,0,0,1.71,4.58,6.25,6.25,0,0,0,4.65,1.82,6.17,6.17,0,0,0,4.62-1.82A6.44,6.44,0,0,0,31,56V37.21H27.13Z"/><polygon class="cls-1" points="35.41 40.74 39.57 40.74 39.57 62.13 43.48 62.13 43.48 40.74 47.68 40.74 47.68 37.21 35.41 37.21 35.41 40.74"/><path class="cls-1" d="M65.89,36.93a5.91,5.91,0,0,0-4.83,2.14c-1.64,2-1.81,4.69-1.81,10.6s.17,8.61,1.81,10.61a6.53,6.53,0,0,0,9.65,0c1.68-2,1.82-4.69,1.82-10.61s-.14-8.64-1.82-10.6A5.87,5.87,0,0,0,65.89,36.93Zm1.89,21a2.08,2.08,0,0,1-1.89,1,2,2,0,0,1-1.85-1c-.74-1.19-.88-3.71-.88-8.26s.14-7.07.88-8.26a2,2,0,0,1,1.85-.94,2.07,2.07,0,0,1,1.89.94c.73,1.19.84,3.71.84,8.26S68.51,56.74,67.78,57.93Z"/><polygon class="cls-1" points="77.81 62.13 81.72 62.13 81.72 51.35 87.35 51.35 87.35 47.82 81.72 47.82 81.72 40.74 88.26 40.74 88.26 37.21 77.81 37.21 77.81 62.13"/><polygon class="cls-1" points="109.2 50.3 104.37 37.21 100.84 37.21 100.84 62.13 104.76 62.13 104.76 46.77 108.08 56.81 110.25 56.81 113.64 46.59 113.64 62.13 117.55 62.13 117.55 37.21 113.99 37.21 109.2 50.3"/><polygon class="cls-1" points="123.49 62.13 133.94 62.13 133.94 58.6 127.41 58.6 127.41 51.35 133.04 51.35 133.04 47.82 127.41 47.82 127.41 40.74 133.94 40.74 133.94 37.21 123.49 37.21 123.49 62.13"/><path class="cls-1" d="M143.28,37.21l-6.12,24.92h4.13l1-4.93H148l1,4.93h4.09l-6-24.92ZM143,53.66l2.14-10.43,2.13,10.43Z"/><polygon class="cls-1" points="161.1 37.21 157.19 37.21 157.19 62.13 167.64 62.13 167.64 58.6 161.1 58.6 161.1 37.21"/><polygon class="cls-1" points="169.21 40.74 173.37 40.74 173.37 62.13 177.29 62.13 177.29 40.74 181.48 40.74 181.48 37.21 169.21 37.21 169.21 40.74"/><rect class="cls-1" x="186.06" y="37.21" width="3.92" height="24.92"/><polygon class="cls-1" points="204.27 50.3 199.45 37.21 195.92 37.21 195.92 62.13 199.83 62.13 199.83 46.77 203.16 56.81 205.32 56.81 208.71 46.59 208.71 62.13 212.63 62.13 212.63 37.21 209.06 37.21 204.27 50.3"/><polygon class="cls-1" points="229.02 40.74 229.02 37.21 218.57 37.21 218.57 62.13 229.02 62.13 229.02 58.6 222.48 58.6 222.48 51.35 228.11 51.35 228.11 47.82 222.48 47.82 222.48 40.74 229.02 40.74"/></svg>