<svg id="Layer_1" data-name="Layer 1" xmlns="http://www.w3.org/2000/svg" viewBox="0 0 293.68 18.66"><path d="M5.24,0,0,14.24H1.62L2.76,11H9l1.14,3.22h1.62L6.52,0Zm-2,9.7L5.9,2.18,8.54,9.7Z" transform="translate(0 0.02)"/><path d="M24.26,4.28A3.77,3.77,0,0,0,21,5.92a3.24,3.24,0,0,0-3-1.64,3.59,3.59,0,0,0-2.78,1.2V4.4H13.78v9.84h1.44V8.18a2.33,2.33,0,0,1,2.46-2.62c1.48,0,2.42.88,2.42,2.62v6.06h1.44V8A2.3,2.3,0,0,1,24,5.56c1.48,0,2.42.88,2.42,2.62v6.06h1.44V7.94A3.66,3.66,0,0,0,26.8,5.2,3.58,3.58,0,0,0,24.26,4.28Z" transform="translate(0 0.02)"/><path d="M34.86,4.28c-2.5,0-4,1.86-4,5,0,3.48,1.7,5,4.3,5a4.51,4.51,0,0,0,3.6-1.52l-1-.86a3.23,3.23,0,0,1-2.58,1.12c-1.88,0-2.9-1.24-2.9-3.4H38.9V9C38.9,6.12,37.4,4.28,34.86,4.28Zm-2.6,4.34A4.14,4.14,0,0,1,32.56,7a2.53,2.53,0,0,1,4.6,0,4.14,4.14,0,0,1,.3,1.64Z" transform="translate(0 0.02)"/><path d="M43.4,5.6V4.4H42v9.84H43.4v-6a2.4,2.4,0,0,1,2.36-2.64,2.06,2.06,0,0,1,1.7.72L48.52,5.2a3,3,0,0,0-2.36-.92A3.31,3.31,0,0,0,43.4,5.6Z" transform="translate(0 0.02)"/><rect x="50.3" width="1.62" height="1.62"/><rect x="50.38" y="4.42" width="1.44" height="9.84"/><path d="M59.26,5.56a2.7,2.7,0,0,1,2.26,1.1l1-.92a3.9,3.9,0,0,0-3.24-1.46c-2.48,0-4.36,1.68-4.36,5s1.88,5,4.36,5A3.9,3.9,0,0,0,62.5,12.9l-1-.94a2.72,2.72,0,0,1-2.26,1.12A2.67,2.67,0,0,1,57,12a4.22,4.22,0,0,1-.64-2.64A4.22,4.22,0,0,1,57,6.68,2.67,2.67,0,0,1,59.26,5.56Z" transform="translate(0 0.02)"/><path d="M68.08,4.28A3.81,3.81,0,0,0,64.6,5.74l1,.9a2.58,2.58,0,0,1,2.48-1.12c1.8,0,2.52.72,2.52,2.16v.94h-3c-2.2,0-3.4,1.12-3.4,2.84a2.83,2.83,0,0,0,.74,2,3.51,3.51,0,0,0,2.78.9,3.46,3.46,0,0,0,2.84-1.06v.94H72V7.56C72,5.42,70.72,4.28,68.08,4.28Zm2.5,6.48a2.27,2.27,0,0,1-.5,1.7,2.88,2.88,0,0,1-2.2.66c-1.56,0-2.26-.54-2.26-1.68s.72-1.74,2.2-1.74h2.76Z" transform="translate(0 0.02)"/><rect x="75.48" y="0.02" width="1.58" height="3.4"/><path d="M84.82,8.7l-1.58-.14C82,8.46,81.52,8,81.52,7.12c0-1,.76-1.62,2.2-1.62a4.2,4.2,0,0,1,2.62.78l.94-.94a5.57,5.57,0,0,0-3.54-1.06c-2.1,0-3.62,1.08-3.62,2.88,0,1.62,1,2.48,2.94,2.64l1.62.14c1.14.1,1.64.58,1.64,1.44,0,1.16-1,1.74-2.62,1.74A4,4,0,0,1,80.64,12l-1,1a5.42,5.42,0,0,0,4,1.42c2.38,0,4-1.1,4-3S86.54,8.86,84.82,8.7Z" transform="translate(0 0.02)"/><polygon points="101.94 10.12 97.3 0.02 95.78 0.02 95.78 14.26 97.3 14.26 97.3 3.44 101.26 12.02 102.56 12.02 106.46 3.44 106.46 14.26 107.98 14.26 107.98 0.02 106.46 0.02 101.94 10.12"/><path d="M115.34,4.28a3.87,3.87,0,0,0-2.82,1.12,5.28,5.28,0,0,0-1.2,3.92,5.28,5.28,0,0,0,1.2,3.92,4.11,4.11,0,0,0,5.64,0,5.28,5.28,0,0,0,1.2-3.92,5.28,5.28,0,0,0-1.2-3.92A3.87,3.87,0,0,0,115.34,4.28Zm1.8,8.08a2.52,2.52,0,0,1-1.8.72,2.48,2.48,0,0,1-1.78-.72,4.29,4.29,0,0,1-.8-3,4.29,4.29,0,0,1,.8-3,2.48,2.48,0,0,1,1.78-.72,2.52,2.52,0,0,1,1.8.72,4.29,4.29,0,0,1,.78,3A4.29,4.29,0,0,1,117.14,12.36Z" transform="translate(0 0.02)"/><path d="M126.64,8.7l-1.58-.14c-1.24-.1-1.72-.6-1.72-1.44,0-1,.76-1.62,2.2-1.62a4.2,4.2,0,0,1,2.62.78l.94-.94a5.57,5.57,0,0,0-3.54-1.06c-2.1,0-3.62,1.08-3.62,2.88,0,1.62,1,2.48,2.94,2.64l1.62.14c1.14.1,1.64.58,1.64,1.44,0,1.16-1,1.74-2.62,1.74A4,4,0,0,1,122.46,12l-1,1a5.42,5.42,0,0,0,4,1.42c2.38,0,4-1.1,4-3S128.36,8.86,126.64,8.7Z" transform="translate(0 0.02)"/><path d="M133.84,1.38H132.4V4.46h-1.24v1.1h1.24v6a2.41,2.41,0,0,0,2.52,2.64h1V13h-.76c-.92,0-1.34-.54-1.34-1.44v-6h2.1V4.46h-2.1Z" transform="translate(0 0.02)"/><path d="M149.34,0H144V14.24h1.52V8.38h3.78a4.07,4.07,0,0,0,4.4-4.2A4,4,0,0,0,149.34,0Zm-.14,7h-3.64V1.36h3.64c1.78,0,3,.94,3,2.82A2.7,2.7,0,0,1,149.2,7Z" transform="translate(0 0.02)"/><path d="M159.68,4.28a3.87,3.87,0,0,0-2.82,1.12,5.28,5.28,0,0,0-1.2,3.92,5.28,5.28,0,0,0,1.2,3.92,4.11,4.11,0,0,0,5.64,0,5.28,5.28,0,0,0,1.2-3.92,5.28,5.28,0,0,0-1.2-3.92A3.87,3.87,0,0,0,159.68,4.28Zm1.8,8.08a2.52,2.52,0,0,1-1.8.72,2.48,2.48,0,0,1-1.78-.72,4.29,4.29,0,0,1-.8-3,4.29,4.29,0,0,1,.8-3,2.48,2.48,0,0,1,1.78-.72,2.52,2.52,0,0,1,1.8.72,4.29,4.29,0,0,1,.78,3A4.29,4.29,0,0,1,161.48,12.36Z" transform="translate(0 0.02)"/><path d="M171,4.28a3.13,3.13,0,0,0-2.78,1.28V4.4h-1.44V18.64h1.44V13.08A3.18,3.18,0,0,0,171,14.36a3.43,3.43,0,0,0,2.4-.86c1-1,1.2-2.64,1.2-4.18s-.2-3.18-1.2-4.18A3.43,3.43,0,0,0,171,4.28Zm-.3,8.8c-2.14,0-2.48-1.84-2.48-3.76s.34-3.76,2.48-3.76,2.46,1.84,2.46,3.76S172.84,13.08,170.7,13.08Z" transform="translate(0 0.02)"/><path d="M183.88,10.46a2.33,2.33,0,0,1-2.46,2.62c-1.48,0-2.4-.88-2.4-2.62V4.4h-1.44v6.28a3.67,3.67,0,0,0,1,2.76,3.5,3.5,0,0,0,2.54.92,3.61,3.61,0,0,0,2.78-1.22v1.1h1.42V4.4h-1.44Z" transform="translate(0 0.02)"/><path d="M190.32,11.56V0h-1.44V11.62a2.34,2.34,0,0,0,2.5,2.62h1V13h-.78C190.64,13,190.32,12.52,190.32,11.56Z" transform="translate(0 0.02)"/><path d="M197.94,4.28a3.81,3.81,0,0,0-3.48,1.46l1,.9a2.58,2.58,0,0,1,2.48-1.12c1.8,0,2.52.72,2.52,2.16v.94h-3c-2.2,0-3.4,1.12-3.4,2.84a2.83,2.83,0,0,0,.74,2,3.51,3.51,0,0,0,2.78.9,3.46,3.46,0,0,0,2.84-1.06v.94h1.44V7.56C201.88,5.42,200.58,4.28,197.94,4.28Zm2.5,6.48a2.27,2.27,0,0,1-.5,1.7,2.88,2.88,0,0,1-2.2.66c-1.56,0-2.26-.54-2.26-1.68s.72-1.74,2.2-1.74h2.76Z" transform="translate(0 0.02)"/><path d="M206.82,5.6V4.4h-1.44v9.84h1.44v-6a2.4,2.4,0,0,1,2.36-2.64,2.06,2.06,0,0,1,1.7.72l1.06-1.08a3,3,0,0,0-2.36-.92A3.31,3.31,0,0,0,206.82,5.6Z" transform="translate(0 0.02)"/><polygon points="225.2 10.12 220.56 0.02 219.04 0.02 219.04 14.26 220.56 14.26 220.56 3.44 224.52 12.02 225.82 12.02 229.72 3.44 229.72 14.26 231.24 14.26 231.24 0.02 229.72 0.02 225.2 10.12"/><path d="M238.6,4.28c-2.5,0-4,1.86-4,5,0,3.48,1.7,5,4.3,5a4.51,4.51,0,0,0,3.6-1.52l-1-.86a3.23,3.23,0,0,1-2.58,1.12c-1.88,0-2.9-1.24-2.9-3.4h6.64V9C242.64,6.12,241.14,4.28,238.6,4.28ZM236,8.62A4.14,4.14,0,0,1,236.3,7a2.53,2.53,0,0,1,4.6,0,4.14,4.14,0,0,1,.3,1.64Z" transform="translate(0 0.02)"/><path d="M248.78,4.28a3.81,3.81,0,0,0-3.48,1.46l1,.9a2.58,2.58,0,0,1,2.48-1.12c1.8,0,2.52.72,2.52,2.16v.94h-3c-2.2,0-3.4,1.12-3.4,2.84a2.83,2.83,0,0,0,.74,2,3.51,3.51,0,0,0,2.78.9,3.46,3.46,0,0,0,2.84-1.06v.94h1.44V7.56C252.72,5.42,251.42,4.28,248.78,4.28Zm2.5,6.48a2.27,2.27,0,0,1-.5,1.7,2.88,2.88,0,0,1-2.2.66c-1.56,0-2.26-.54-2.26-1.68s.72-1.74,2.2-1.74h2.76Z" transform="translate(0 0.02)"/><path d="M257.62,11.56V0h-1.44V11.62a2.34,2.34,0,0,0,2.5,2.62h1V13h-.78C257.94,13,257.62,12.52,257.62,11.56Z" transform="translate(0 0.02)"/><polygon points="277.42 0.02 275.56 0.02 268.92 8.2 268.92 0.02 267.4 0.02 267.4 14.26 268.92 14.26 268.92 10.28 271.92 6.68 276.26 14.26 278.06 14.26 272.94 5.52 277.42 0.02"/><rect x="280.14" y="4.42" width="1.44" height="9.84"/><rect x="280.06" width="1.62" height="1.62"/><path d="M286.88,1.38h-1.44V4.46H284.2v1.1h1.24v6A2.41,2.41,0,0,0,288,14.24h1V13h-.76c-.92,0-1.34-.54-1.34-1.44v-6H289V4.46h-2.1Z" transform="translate(0 0.02)"/><rect x="291.8" y="12.38" width="1.88" height="1.88"/></svg>